<?xml version="1.0" encoding="UTF-8" standalone="no"?>
<!-- Created with Inkscape (http://www.inkscape.org/) -->

<svg
   width="50.856445"
   height="50.856308"
   viewBox="0 0 13.455767 13.455731"
   version="1.1"
   id="svg1"
   xml:space="preserve"
   xmlns="http://www.w3.org/2000/svg"
   xmlns:svg="http://www.w3.org/2000/svg"><defs
     id="defs1" /><g
     id="layer1"
     transform="translate(-360.07021,-2.4979409)"><rect
       style="font-variation-settings:'wdth' 99.7, 'wght' 469;fill:#0a1833;fill-opacity:1;stroke-width:1.5;stroke-miterlimit:10;paint-order:stroke fill markers"
       id="rect8"
       width="13.45574"
       height="13.455731"
       x="360.07022"
       y="2.4979408" /><rect
       style="fill:#0a1833;fill-opacity:1;stroke-width:0.15;stroke-miterlimit:10;paint-order:stroke fill markers"
       id="rect1"
       width="381"
       height="18.451612"
       x="0"
       y="0" /><path
       id="path1-9-54"
       style="font-variation-settings:'wght' 500;fill:#ccffff;fill-opacity:1;stroke:#ccffff;stroke-width:0.307843;stroke-miterlimit:10;stroke-opacity:1"
       d="m 368.14709,6.9940104 a 1.3484877,1.3484877 0 0 1 -1.34849,1.34849 1.3484877,1.3484877 0 0 1 -1.34849,-1.34849 1.3484877,1.3484877 0 0 1 1.34849,-1.3484881 1.3484877,1.3484877 0 0 1 1.34849,1.3484881 z" /><path
       id="path4-3-1"
       style="font-variation-settings:'wght' 500;fill:#ccffff;fill-opacity:1;stroke:#ccffff;stroke-width:0.307843;stroke-miterlimit:10;stroke-dasharray:none;stroke-dashoffset:0;stroke-opacity:1"
       d="m 366.79859,9.177217 a 2.7932954,2.7932954 0 0 0 -2.74232,2.29225 5.3231247,5.2334164 0 0 0 2.74232,0.758026 5.3231247,5.2334164 0 0 0 2.74682,-0.760418 2.7932954,2.7932954 0 0 0 -2.74682,-2.289858 z" /><circle
       style="fill:none;fill-opacity:1;stroke:#ccffff;stroke-width:0.874725;stroke-miterlimit:10;stroke-dasharray:none;stroke-opacity:1;paint-order:stroke fill markers"
       id="path5"
       cx="366.7981"
       cy="9.2258062"
       r="6.290503" /></g></svg>
