<?xml version="1.0" encoding="UTF-8" standalone="no"?>
<!-- Created with Inkscape (http://www.inkscape.org/) -->

<svg
   width="1440"
   height="900"
   viewBox="0 0 380.99999 238.125"
   version="1.1"
   id="svg1"
   inkscape:version="1.4 (86a8ad7, 2024-10-11)"
   sodipodi:docname="3.svg"
   xml:space="preserve"
   xmlns:inkscape="http://www.inkscape.org/namespaces/inkscape"
   xmlns:sodipodi="http://sodipodi.sourceforge.net/DTD/sodipodi-0.dtd"
   xmlns:xlink="http://www.w3.org/1999/xlink"
   xmlns="http://www.w3.org/2000/svg"
   xmlns:svg="http://www.w3.org/2000/svg"><sodipodi:namedview
     id="namedview1"
     pagecolor="#030a17"
     bordercolor="#000000"
     borderopacity="0.25"
     inkscape:showpageshadow="2"
     inkscape:pageopacity="0.0"
     inkscape:pagecheckerboard="0"
     inkscape:deskcolor="#d1d1d1"
     inkscape:document-units="mm"
     inkscape:zoom="0.74564394"
     inkscape:cx="635.69215"
     inkscape:cy="514.32055"
     inkscape:window-width="1920"
     inkscape:window-height="1017"
     inkscape:window-x="-8"
     inkscape:window-y="-8"
     inkscape:window-maximized="1"
     inkscape:current-layer="layer1" /><defs
     id="defs1"><rect
       x="398.13477"
       y="341.98628"
       width="638.55307"
       height="206.53289"
       id="rect5" /><linearGradient
       id="linearGradient16"
       inkscape:collect="always"><stop
         style="stop-color:#030a17;stop-opacity:1;"
         offset="0"
         id="stop16" /><stop
         style="stop-color:#030a17;stop-opacity:0;"
         offset="1"
         id="stop17" /></linearGradient><linearGradient
       inkscape:collect="always"
       xlink:href="#linearGradient16"
       id="linearGradient17"
       x1="180.31998"
       y1="238.125"
       x2="180.31998"
       y2="219.09424"
       gradientUnits="userSpaceOnUse" /><rect
       x="398.13477"
       y="341.98627"
       width="638.55304"
       height="206.53288"
       id="rect5-5" /><rect
       x="398.13477"
       y="341.98627"
       width="638.55304"
       height="206.53288"
       id="rect5-5-2" /></defs><g
     inkscape:label="Layer 1"
     inkscape:groupmode="layer"
     id="layer1"><rect
       style="fill:#050e1f;fill-opacity:1;stroke-width:1.323;stroke-miterlimit:10;paint-order:stroke fill markers;stroke:#ccffff;stroke-opacity:1"
       id="rect4"
       width="187.70969"
       height="84.096771"
       x="97.225807"
       y="68.483871"
       ry="8.875844" /><rect
       style="fill:#0a1833;stroke-width:0.15;stroke-miterlimit:10;paint-order:stroke fill markers;fill-opacity:1"
       id="rect1"
       width="381"
       height="18.451612"
       x="0"
       y="0" /><g
       inkscape:label="Layer 1"
       id="layer1-8"
       transform="translate(-11.132841,-11.383545)"><path
         d="m 50.645259,26.93116 v -6.894683 h 4.573407 v 1.333499 H 52.14668 v 1.412521 h 2.617609 v 1.323621 H 52.14668 v 2.825042 z m 7.487344,0.118534 q -0.57291,0 -1.027288,-0.187678 -0.444499,-0.187678 -0.760588,-0.543277 -0.306211,-0.3556 -0.474133,-0.859366 -0.167922,-0.503767 -0.167922,-1.126066 0,-0.6223 0.167922,-1.126066 0.167922,-0.503766 0.474133,-0.849488 0.316089,-0.3556 0.760588,-0.543278 0.454378,-0.187677 1.027288,-0.187677 0.572911,0 1.017411,0.187677 0.454377,0.187678 0.760588,0.543278 0.316089,0.345722 0.484011,0.849488 0.167922,0.503766 0.167922,1.126066 0,0.622299 -0.167922,1.126066 -0.167922,0.503766 -0.484011,0.859366 -0.306211,0.355599 -0.760588,0.543277 -0.4445,0.187678 -1.017411,0.187678 z m 0,-1.155699 q 0.434622,0 0.671689,-0.2667 0.237066,-0.2667 0.237066,-0.760589 v -1.056921 q 0,-0.493889 -0.237066,-0.760588 -0.237067,-0.2667 -0.671689,-0.2667 -0.434621,0 -0.671688,0.2667 -0.237066,0.266699 -0.237066,0.760588 v 1.056921 q 0,0.493889 0.237066,0.760589 0.237067,0.2667 0.671688,0.2667 z m 3.46709,1.037165 v -5.185829 h 1.46191 v 1.126066 h 0.04939 q 0.03951,-0.217311 0.138289,-0.414867 0.09878,-0.207433 0.256822,-0.365477 0.167922,-0.158044 0.395111,-0.246944 0.227189,-0.09878 0.533399,-0.09878 h 0.256822 v 1.363132 h -0.365477 q -0.642055,0 -0.958144,0.167922 -0.306211,0.167922 -0.306211,0.6223 v 3.032475 z m 7.052721,-0.869243 h -0.04939 q -0.06914,0.197555 -0.187677,0.375355 -0.108656,0.1778 -0.286456,0.316089 -0.1778,0.138288 -0.424744,0.217311 -0.237066,0.07902 -0.553155,0.07902 -0.800099,0 -1.214966,-0.523522 -0.404988,-0.5334 -0.404988,-1.521177 v -3.259664 h 1.46191 v 3.131253 q 0,0.474133 0.167922,0.730955 0.167922,0.256822 0.572911,0.256822 0.167922,0 0.335844,-0.04939 0.167922,-0.04939 0.296333,-0.138288 0.128411,-0.09878 0.207433,-0.237067 0.07902,-0.138289 0.07902,-0.325966 v -3.36832 h 1.46191 v 5.185829 h -1.46191 z m 2.825049,0.869243 v -5.185829 h 1.46191 v 0.879122 h 0.05927 q 0.138289,-0.414867 0.474133,-0.701322 0.335845,-0.296333 0.918633,-0.296333 0.5334,0 0.908755,0.2667 0.375355,0.266699 0.543277,0.780343 h 0.02963 q 0.06914,-0.217311 0.207433,-0.404988 0.148166,-0.197556 0.3556,-0.335844 0.207433,-0.138289 0.464255,-0.217311 0.256822,-0.0889 0.553155,-0.0889 0.75071,0 1.145821,0.533399 0.404989,0.5334 0.404989,1.521177 v 3.249786 h -1.46191 v -3.131253 q 0,-0.987777 -0.7112,-0.987777 -0.325966,0 -0.592666,0.187678 -0.2667,0.187677 -0.2667,0.57291 v 3.358442 h -1.46191 v -3.131253 q 0,-0.987777 -0.711199,-0.987777 -0.158044,0 -0.316089,0.04939 -0.148166,0.03951 -0.276577,0.138289 -0.118534,0.09878 -0.197556,0.246944 -0.06914,0.138289 -0.06914,0.325966 v 3.358442 z m 9.680207,0.108656 q -0.4445,0 -0.661811,-0.217311 -0.207433,-0.227189 -0.207433,-0.572911 v -0.197555 q 0,-0.345722 0.207433,-0.563033 0.217311,-0.227189 0.661811,-0.227189 0.4445,0 0.651933,0.227189 0.217311,0.217311 0.217311,0.563033 v 0.197555 q 0,0.345722 -0.217311,0.572911 -0.207433,0.217311 -0.651933,0.217311 z m 2.212613,-0.108656 v -5.185829 h 1.46191 v 0.879122 h 0.05927 q 0.138289,-0.404989 0.484011,-0.701322 0.345722,-0.296333 0.958143,-0.296333 0.8001,0 1.205088,0.533399 0.414867,0.5334 0.414867,1.521177 v 3.249786 h -1.46191 v -3.131253 q 0,-0.503766 -0.158045,-0.740833 -0.158044,-0.246944 -0.563033,-0.246944 -0.1778,0 -0.345722,0.04939 -0.167922,0.03951 -0.30621,0.138289 -0.128412,0.09878 -0.207434,0.246944 -0.07902,0.138289 -0.07902,0.325966 v 3.358442 z m 8.050393,0.118534 q -0.59267,0 -1.05692,-0.187678 -0.464257,-0.197555 -0.790223,-0.543277 -0.316089,-0.3556 -0.484011,-0.859366 -0.158044,-0.503767 -0.158044,-1.126066 0,-0.612422 0.158044,-1.10631 0.158045,-0.503767 0.464256,-0.859366 0.316088,-0.3556 0.770468,-0.543278 0.45438,-0.197555 1.03716,-0.197555 0.64206,0 1.09644,0.217311 0.46425,0.217311 0.75071,0.582788 0.29633,0.365478 0.42474,0.849488 0.13829,0.474133 0.13829,0.997655 v 0.434622 h -3.32881 v 0.07902 q 0,0.513644 0.27658,0.819855 0.27658,0.296333 0.86924,0.296333 0.45438,0 0.74084,-0.1778 0.28645,-0.187677 0.5334,-0.444499 l 0.73095,0.908755 q -0.34572,0.404988 -0.90875,0.632177 -0.55316,0.227189 -1.26436,0.227189 z m -0.0296,-4.346219 q -0.4445,0 -0.70132,0.296333 -0.24695,0.286455 -0.24695,0.770466 v 0.07902 h 1.81751 v -0.0889 q 0,-0.474133 -0.21731,-0.760588 -0.20743,-0.296333 -0.65193,-0.296333 z m 5.23522,4.227685 q -0.76059,0 -1.1557,-0.385233 -0.38523,-0.385233 -0.38523,-1.126065 v -2.538587 h -0.73096 v -1.135944 h 0.36548 q 0.29633,0 0.40499,-0.138289 0.10865,-0.148166 0.10865,-0.414866 v -0.849488 h 1.31375 v 1.402643 h 1.02729 v 1.135944 h -1.02729 v 2.913942 h 0.94826 v 1.135943 z"
         id="text1"
         style="font-weight:bold;font-size:9.87777px;font-family:'IBM Plex Sans';-inkscape-font-specification:'IBM Plex Sans, Bold';text-align:center;letter-spacing:0px;word-spacing:0px;text-anchor:middle;fill:#ccffff;stroke-width:0.15;stroke-miterlimit:10;paint-order:stroke fill markers"
         aria-label="Forum.net" /><path
         id="rect1-82"
         style="fill:#00b3b3;stroke-width:0.15;stroke-miterlimit:10;paint-order:stroke fill markers"
         d="m 37.631817,14.038057 h 3.193549 v 3.193548 h -3.193549 z" /><path
         id="rect1-8"
         style="fill:#00d455;stroke-width:0.15;stroke-miterlimit:10;paint-order:stroke fill markers"
         d="m 37.631817,19.182967 h 3.193548 v 7.866726 h -3.193548 z" /><path
         id="rect1-8-4"
         style="fill:#0066ff;stroke-width:0.15;stroke-miterlimit:10;paint-order:stroke fill markers"
         d="m 42.821081,19.182967 h 3.193549 v 7.866726 h -3.193549 z" /><path
         id="rect1-8-4-6"
         style="fill:#0066ff;stroke-width:0.15;stroke-miterlimit:10;paint-order:stroke fill markers"
         d="m 42.778532,17.231606 v -3.193548 h 7.866726 v 3.193548 z" /></g><rect
       style="fill:#ccffff;fill-opacity:1;stroke-width:0.0874987;stroke-miterlimit:10;paint-order:stroke fill markers"
       id="rect2"
       width="9.1802387"
       height="1.1475216"
       x="6.4913449"
       y="6.4209342" /><rect
       style="fill:#ccffff;fill-opacity:1;stroke-width:0.0874987;stroke-miterlimit:10;paint-order:stroke fill markers"
       id="rect2-1"
       width="9.1802387"
       height="1.1475216"
       x="6.4913449"
       y="9.0768595" /><rect
       style="fill:#ccffff;fill-opacity:1;stroke-width:0.0874987;stroke-miterlimit:10;paint-order:stroke fill markers"
       id="rect2-1-7"
       width="9.1802387"
       height="1.1475216"
       x="6.4913449"
       y="11.732785" /><rect
       style="fill:#1a2b4c;fill-opacity:1;stroke-width:1.323;stroke-miterlimit:10;paint-order:stroke fill markers;stroke:#000000;stroke-opacity:1;stroke-dasharray:none"
       id="rect3"
       width="156.6989"
       height="9.7319889"
       x="112.15056"
       y="4.3598118"
       ry="0" /><circle
       style="fill:none;fill-opacity:1;stroke:#ccffff;stroke-width:0.529167;stroke-miterlimit:10;stroke-dasharray:none;stroke-opacity:1;paint-order:stroke fill markers"
       id="path3"
       cx="116.31405"
       cy="8.2138414"
       r="1.7741935" /><path
       style="fill:none;fill-opacity:1;stroke:#ccffff;stroke-width:0.529167;stroke-miterlimit:10;stroke-dasharray:none;stroke-opacity:1;paint-order:stroke fill markers"
       d="m 118.40944,10.322422 2.25588,2.322414"
       id="path4"
       sodipodi:nodetypes="cc" /><text
       xml:space="preserve"
       style="font-style:normal;font-variant:normal;font-weight:normal;font-stretch:normal;font-size:4.93889px;font-family:'IBM Plex Sans';-inkscape-font-specification:'IBM Plex Sans, Normal';font-variant-ligatures:normal;font-variant-caps:normal;font-variant-numeric:normal;font-variant-east-asian:normal;text-align:center;letter-spacing:0px;word-spacing:0px;writing-mode:lr-tb;direction:ltr;text-anchor:middle;fill:#ccffff;fill-opacity:0.402204;stroke:none;stroke-width:0.529167;stroke-miterlimit:10;stroke-dasharray:none;stroke-opacity:1;paint-order:stroke fill markers"
       x="134.85847"
       y="11.063442"
       id="text4"><tspan
         sodipodi:role="line"
         id="tspan4"
         style="font-style:normal;font-variant:normal;font-weight:normal;font-stretch:normal;font-size:4.93889px;font-family:'IBM Plex Sans';-inkscape-font-specification:'IBM Plex Sans, Normal';font-variant-ligatures:normal;font-variant-caps:normal;font-variant-numeric:normal;font-variant-east-asian:normal;fill:#ccffff;fill-opacity:0.402204;stroke:none;stroke-width:0.529167"
         x="134.85847"
         y="11.063442">Wyszukaj</tspan></text><path
       id="path1-9-54"
       style="font-variation-settings:'wght' 500;fill:#ccffff;fill-opacity:1;stroke:#ccffff;stroke-width:0.307843;stroke-miterlimit:10;stroke-opacity:1"
       d="m 368.14709,6.9940104 a 1.3484877,1.3484877 0 0 1 -1.34849,1.34849 1.3484877,1.3484877 0 0 1 -1.34849,-1.34849 1.3484877,1.3484877 0 0 1 1.34849,-1.3484881 1.3484877,1.3484877 0 0 1 1.34849,1.3484881 z" /><path
       id="path4-3-1"
       style="font-variation-settings:'wght' 500;fill:#ccffff;fill-opacity:1;stroke:#ccffff;stroke-width:0.307843;stroke-miterlimit:10;stroke-dasharray:none;stroke-dashoffset:0;stroke-opacity:1"
       d="m 366.79859,9.177217 a 2.7932954,2.7932954 0 0 0 -2.74232,2.29225 5.3231247,5.2334164 0 0 0 2.74232,0.758026 5.3231247,5.2334164 0 0 0 2.74682,-0.760418 2.7932954,2.7932954 0 0 0 -2.74682,-2.289858 z" /><path
       id="path1-9-54-8"
       style="font-variation-settings:'wght' 500;fill:#ccffff;fill-opacity:1;stroke:#ccffff;stroke-width:0.307843;stroke-miterlimit:10;stroke-opacity:1"
       d="m 110.22147,76.978187 a 1.3484877,1.3484877 0 0 1 -1.34849,1.34849 1.3484877,1.3484877 0 0 1 -1.34849,-1.34849 1.3484877,1.3484877 0 0 1 1.34849,-1.348488 1.3484877,1.3484877 0 0 1 1.34849,1.348488 z" /><path
       id="path4-3-1-8"
       style="font-variation-settings:'wght' 500;fill:#ccffff;fill-opacity:1;stroke:#ccffff;stroke-width:0.307843;stroke-miterlimit:10;stroke-dasharray:none;stroke-dashoffset:0;stroke-opacity:1"
       d="m 108.87297,79.161394 a 2.7932954,2.7932954 0 0 0 -2.74232,2.29225 5.3231247,5.2334164 0 0 0 2.74232,0.758026 5.3231247,5.2334164 0 0 0 2.74682,-0.760418 2.7932954,2.7932954 0 0 0 -2.74682,-2.289858 z" /><circle
       style="fill:none;fill-opacity:1;stroke:#ccffff;stroke-width:0.874725;stroke-miterlimit:10;stroke-dasharray:none;stroke-opacity:1;paint-order:stroke fill markers"
       id="path5"
       cx="366.7981"
       cy="9.2258062"
       r="6.290503" /><text
       xml:space="preserve"
       style="font-style:normal;font-variant:normal;font-weight:bold;font-stretch:normal;font-size:11.2889px;font-family:'IBM Plex Sans';-inkscape-font-specification:'IBM Plex Sans, Bold';font-variant-ligatures:normal;font-variant-caps:normal;font-variant-numeric:normal;font-variant-east-asian:normal;text-align:center;letter-spacing:0px;word-spacing:0px;writing-mode:lr-tb;direction:ltr;text-anchor:middle;fill:#ccffff;fill-opacity:1;stroke:none;stroke-width:0.79375;stroke-miterlimit:10;stroke-dasharray:none;stroke-opacity:1;paint-order:stroke fill markers"
       x="190.26294"
       y="47.183552"
       id="text12"><tspan
         sodipodi:role="line"
         id="tspan12"
         style="font-style:normal;font-variant:normal;font-weight:bold;font-stretch:normal;font-size:11.2889px;font-family:'IBM Plex Sans';-inkscape-font-specification:'IBM Plex Sans, Bold';font-variant-ligatures:normal;font-variant-caps:normal;font-variant-numeric:normal;font-variant-east-asian:normal;fill:#ccffff;fill-opacity:1;stroke:none;stroke-width:0.79375"
         x="190.26294"
         y="47.183552">Programowanie obiektowe a SQL</tspan></text><text
       xml:space="preserve"
       style="font-style:normal;font-variant:normal;font-weight:normal;font-stretch:normal;font-size:4.93889px;font-family:'IBM Plex Sans';-inkscape-font-specification:'IBM Plex Sans, Normal';font-variant-ligatures:normal;font-variant-caps:normal;font-variant-numeric:normal;font-variant-east-asian:normal;text-align:center;letter-spacing:0px;word-spacing:0px;writing-mode:lr-tb;direction:ltr;text-anchor:middle;fill:#ccffff;fill-opacity:1;stroke:none;stroke-width:0.79375;stroke-miterlimit:10;stroke-dasharray:none;stroke-opacity:1;paint-order:stroke fill markers"
       x="113.64748"
       y="57.017738"
       id="text13"><tspan
         sodipodi:role="line"
         id="tspan13"
         style="font-style:normal;font-variant:normal;font-weight:normal;font-stretch:normal;font-size:4.93889px;font-family:'IBM Plex Sans';-inkscape-font-specification:'IBM Plex Sans, Normal';font-variant-ligatures:normal;font-variant-caps:normal;font-variant-numeric:normal;font-variant-east-asian:normal;fill:#ccffff;fill-opacity:1;stroke-width:0.79375"
         x="113.64748"
         y="57.017738">10</tspan></text><text
       xml:space="preserve"
       style="font-style:normal;font-variant:normal;font-weight:normal;font-stretch:normal;font-size:4.93889px;font-family:'IBM Plex Sans';-inkscape-font-specification:'IBM Plex Sans, Normal';font-variant-ligatures:normal;font-variant-caps:normal;font-variant-numeric:normal;font-variant-east-asian:normal;text-align:center;letter-spacing:0px;word-spacing:0px;writing-mode:lr-tb;direction:ltr;text-anchor:middle;fill:#ccffff;fill-opacity:1;stroke:none;stroke-width:0.79375;stroke-miterlimit:10;stroke-dasharray:none;stroke-opacity:1;paint-order:stroke fill markers"
       x="132.89935"
       y="57.295555"
       id="text13-9"><tspan
         sodipodi:role="line"
         id="tspan13-8"
         style="font-style:normal;font-variant:normal;font-weight:normal;font-stretch:normal;font-size:4.93889px;font-family:'IBM Plex Sans';-inkscape-font-specification:'IBM Plex Sans, Normal';font-variant-ligatures:normal;font-variant-caps:normal;font-variant-numeric:normal;font-variant-east-asian:normal;fill:#ccffff;fill-opacity:1;stroke-width:0.79375"
         x="132.89935"
         y="57.295555">55</tspan></text><path
       d="m 104.45006,55.307673 1.90513,1.905131 1.90515,-1.905131 c 0.2243,-0.224321 0.35033,-0.528564 0.35033,-0.845802 v -0.05365 c 0,-0.630981 -0.51151,-1.142493 -1.14248,-1.142493 -0.34709,0 -0.67534,0.157767 -0.89216,0.428782 l -0.22084,0.276053 -0.22083,-0.276053 c -0.21682,-0.271015 -0.54507,-0.428782 -0.89215,-0.428782 -0.63098,0 -1.14249,0.511512 -1.14249,1.142493 v 0.05365 c 0,0.317238 0.12602,0.621481 0.35034,0.845802 z"
       fill="#000000"
       id="path1"
       style="fill:none;fill-opacity:1;stroke:#ccffff;stroke-width:0.529167;stroke-dasharray:none;stroke-opacity:1" /><path
       d="m 271.0231,78.591191 2.97617,2.97617 2.9762,-2.97617 c 0.3504,-0.350432 0.54728,-0.825716 0.54728,-1.321301 v -0.08381 c 0,-0.985711 -0.79907,-1.784788 -1.78477,-1.784788 -0.54221,0 -1.05501,0.246462 -1.39372,0.669837 l -0.34499,0.431246 -0.34498,-0.431246 c -0.33871,-0.423375 -0.85151,-0.669837 -1.3937,-0.669837 -0.98572,0 -1.78479,0.799077 -1.78479,1.784788 v 0.08381 c 0,0.495585 0.19687,0.970869 0.5473,1.321301 z"
       fill="#000000"
       id="path1-1"
       style="fill:none;fill-opacity:1;stroke:#ccffff;stroke-width:0.826658;stroke-dasharray:none;stroke-opacity:1" /><path
       d="m 125.64659,54.032747 c -0.95799,0 -1.76892,0.629623 -2.04153,1.497634 0.27262,0.868005 1.08355,1.497628 2.04153,1.497628 0.95797,0 1.76889,-0.629623 2.04152,-1.497628 -0.27263,-0.868006 -1.08355,-1.497634 -2.04152,-1.497634 z"
       stroke="#000000"
       stroke-width="0.427894"
       stroke-linecap="round"
       stroke-linejoin="round"
       id="path2"
       style="fill:#000000;fill-opacity:0;stroke:#ccffff;stroke-opacity:1" /><path
       d="m 126.28842,55.530381 c 0,0.354485 -0.28734,0.64184 -0.64184,0.64184 -0.35448,0 -0.64183,-0.287355 -0.64183,-0.64184 0,-0.354491 0.28736,-0.641846 0.64183,-0.641846 0.3545,0 0.64184,0.287355 0.64184,0.641846 z"
       stroke="#000000"
       stroke-width="0.427894"
       stroke-linecap="round"
       stroke-linejoin="round"
       id="path1-7"
       style="fill:#000000;fill-opacity:0;stroke:#ccffff;stroke-opacity:1" /><text
       xml:space="preserve"
       style="font-style:normal;font-variant:normal;font-weight:normal;font-stretch:normal;font-size:4.23333px;font-family:'IBM Plex Sans';-inkscape-font-specification:'IBM Plex Sans, Normal';font-variant-ligatures:normal;font-variant-caps:normal;font-variant-numeric:normal;font-variant-east-asian:normal;text-align:start;letter-spacing:0px;word-spacing:0px;writing-mode:lr-tb;direction:ltr;text-anchor:start;fill:#ccffff;fill-opacity:1;stroke:none;stroke-width:0.661458;stroke-miterlimit:10;stroke-dasharray:none;stroke-opacity:1;paint-order:stroke fill markers"
       x="223.76141"
       y="56.719116"
       id="text16"><tspan
         sodipodi:role="line"
         id="tspan16"
         style="font-style:normal;font-variant:normal;font-weight:normal;font-stretch:normal;font-size:4.23333px;font-family:'IBM Plex Sans';-inkscape-font-specification:'IBM Plex Sans, Normal';font-variant-ligatures:normal;font-variant-caps:normal;font-variant-numeric:normal;font-variant-east-asian:normal;fill:#ccffff;fill-opacity:1;stroke:none;stroke-width:0.661458"
         x="223.76141"
         y="56.719116">#programowanie #sql #oop</tspan></text><text
       xml:space="preserve"
       style="font-style:normal;font-variant:normal;font-weight:normal;font-stretch:normal;font-size:4.23333px;font-family:'IBM Plex Sans';-inkscape-font-specification:'IBM Plex Sans, Normal';font-variant-ligatures:normal;font-variant-caps:normal;font-variant-numeric:normal;font-variant-east-asian:normal;text-align:start;letter-spacing:0px;word-spacing:0px;writing-mode:lr-tb;direction:ltr;text-anchor:start;fill:#ccffff;stroke-width:1.323;stroke-miterlimit:10;paint-order:stroke fill markers"
       x="116.91512"
       y="80.110863"
       id="text2"><tspan
         sodipodi:role="line"
         id="tspan1"
         style="font-style:normal;font-variant:normal;font-weight:normal;font-stretch:normal;font-size:4.23333px;font-family:'IBM Plex Sans';-inkscape-font-specification:'IBM Plex Sans, Normal';font-variant-ligatures:normal;font-variant-caps:normal;font-variant-numeric:normal;font-variant-east-asian:normal;stroke-width:1.323"
         x="116.91512"
         y="80.110863">GalAnonim</tspan></text><text
       xml:space="preserve"
       style="font-style:normal;font-variant:normal;font-weight:normal;font-stretch:normal;font-size:4.23333px;font-family:'IBM Plex Sans';-inkscape-font-specification:'IBM Plex Sans, Normal';font-variant-ligatures:normal;font-variant-caps:normal;font-variant-numeric:normal;font-variant-east-asian:normal;text-align:start;letter-spacing:0px;word-spacing:0px;writing-mode:lr-tb;direction:ltr;text-anchor:start;fill:#ccffff;fill-opacity:0.4625;stroke-width:1.323;stroke-miterlimit:10;paint-order:stroke fill markers"
       x="141.78622"
       y="79.888611"
       id="text3"><tspan
         sodipodi:role="line"
         id="tspan2"
         style="fill:#ccffff;fill-opacity:0.4625;stroke-width:1.323"
         x="141.78622"
         y="79.888611">(5 dni temu)</tspan></text><text
       xml:space="preserve"
       transform="matrix(0.26458333,0,0,0.26458333,1.4239394,-2.6612903)"
       id="text5"
       style="font-style:normal;font-variant:normal;font-weight:normal;font-stretch:normal;font-size:16px;font-family:'IBM Plex Sans';-inkscape-font-specification:'IBM Plex Sans, Normal';font-variant-ligatures:normal;font-variant-caps:normal;font-variant-numeric:normal;font-variant-east-asian:normal;text-align:start;letter-spacing:0px;word-spacing:0px;writing-mode:lr-tb;direction:ltr;white-space:pre;shape-inside:url(#rect5);display:inline;fill:#ccffff;fill-opacity:1;stroke:none;stroke-width:5.00032;stroke-miterlimit:10;stroke-opacity:1;paint-order:stroke fill markers"><tspan
         x="398.13477"
         y="356.46633"
         id="tspan5">Lorem ipsum dolor sit amet, consectetur adipiscing elit. Ut eget elementum ligula. Sed </tspan><tspan
         x="398.13477"
         y="376.46633"
         id="tspan25">viverra mauris eu mauris auctor convallis. Vestibulum ante ipsum primis in faucibus orci </tspan><tspan
         x="398.13477"
         y="396.46633"
         id="tspan26">luctus et ultrices posuere cubilia curae; Donec scelerisque mi purus, ac vestibulum velit </tspan><tspan
         x="398.13477"
         y="416.46633"
         id="tspan27">accumsan a. Vestibulum et est ipsum. Sed elit sem, imperdiet sed est eu, commodo </tspan><tspan
         x="398.13477"
         y="436.46633"
         id="tspan28">imperdiet lectus. Maecenas imperdiet erat non sodales cursus. Mauris est odio, tempus </tspan><tspan
         x="398.13477"
         y="456.46633"
         id="tspan29">quis porttitor et, vehicula id massa. Donec sit amet est nec est laoreet aliquet. Nam eget </tspan><tspan
         x="398.13477"
         y="476.46633"
         id="tspan30">feugiat arcu. Etiam consequat lorem non facilisis scelerisque. Cras nisi ipsum, tincidunt </tspan><tspan
         x="398.13477"
         y="496.46633"
         id="tspan31">ac luctus vel, consequat non nulla. Donec id aliquet purus. Proin quis mauris efficitur, </tspan><tspan
         x="398.13477"
         y="516.46633"
         id="tspan32">posuere felis dignissim, rutrum sem. Interdum et malesuada fames ac ante ipsum primis </tspan><tspan
         x="398.13477"
         y="536.46633"
         id="tspan33">in faucibus. </tspan></text><path
       id="path1-9-54-8-7"
       style="font-variation-settings:'wght' 500;fill:#ccffff;fill-opacity:1;stroke:#ccffff;stroke-width:0.307843;stroke-miterlimit:10;stroke-opacity:1"
       d="m 110.22147,170.89042 a 1.3484877,1.3484877 0 0 1 -1.34849,1.34849 1.3484877,1.3484877 0 0 1 -1.34849,-1.34849 1.3484877,1.3484877 0 0 1 1.34849,-1.34849 1.3484877,1.3484877 0 0 1 1.34849,1.34849 z" /><path
       id="path4-3-1-8-1"
       style="font-variation-settings:'wght' 500;fill:#ccffff;fill-opacity:1;stroke:#ccffff;stroke-width:0.307843;stroke-miterlimit:10;stroke-dasharray:none;stroke-dashoffset:0;stroke-opacity:1"
       d="m 108.87297,173.07363 a 2.7932954,2.7932954 0 0 0 -2.74232,2.29225 5.3231247,5.2334164 0 0 0 2.74232,0.75803 5.3231247,5.2334164 0 0 0 2.74682,-0.76042 2.7932954,2.7932954 0 0 0 -2.74682,-2.28986 z" /><text
       xml:space="preserve"
       style="font-style:normal;font-variant:normal;font-weight:normal;font-stretch:normal;font-size:4.23333px;font-family:'IBM Plex Sans';-inkscape-font-specification:'IBM Plex Sans, Normal';font-variant-ligatures:normal;font-variant-caps:normal;font-variant-numeric:normal;font-variant-east-asian:normal;text-align:start;letter-spacing:0px;word-spacing:0px;writing-mode:lr-tb;direction:ltr;text-anchor:start;fill:#ccffff;stroke-width:1.323;stroke-miterlimit:10;paint-order:stroke fill markers"
       x="116.91512"
       y="174.0231"
       id="text2-1"><tspan
         sodipodi:role="line"
         id="tspan1-5"
         style="font-style:normal;font-variant:normal;font-weight:normal;font-stretch:normal;font-size:4.23333px;font-family:'IBM Plex Sans';-inkscape-font-specification:'IBM Plex Sans, Normal';font-variant-ligatures:normal;font-variant-caps:normal;font-variant-numeric:normal;font-variant-east-asian:normal;stroke-width:1.323"
         x="116.91512"
         y="174.0231">Adrian104</tspan></text><text
       xml:space="preserve"
       style="font-style:normal;font-variant:normal;font-weight:normal;font-stretch:normal;font-size:4.23333px;font-family:'IBM Plex Sans';-inkscape-font-specification:'IBM Plex Sans, Normal';font-variant-ligatures:normal;font-variant-caps:normal;font-variant-numeric:normal;font-variant-east-asian:normal;text-align:start;letter-spacing:0px;word-spacing:0px;writing-mode:lr-tb;direction:ltr;text-anchor:start;fill:#ccffff;fill-opacity:0.4625;stroke-width:1.323;stroke-miterlimit:10;paint-order:stroke fill markers"
       x="141.53531"
       y="174.10777"
       id="text3-2"><tspan
         sodipodi:role="line"
         id="tspan2-7"
         style="fill:#ccffff;fill-opacity:0.4625;stroke-width:1.323"
         x="141.53531"
         y="174.10777">(3 dni temu)</tspan></text><text
       xml:space="preserve"
       transform="matrix(0.26458333,0,0,0.26458333,1.4239394,91.25095)"
       id="text5-6"
       style="font-style:normal;font-variant:normal;font-weight:normal;font-stretch:normal;font-size:16px;font-family:'IBM Plex Sans';-inkscape-font-specification:'IBM Plex Sans, Normal';font-variant-ligatures:normal;font-variant-caps:normal;font-variant-numeric:normal;font-variant-east-asian:normal;text-align:start;letter-spacing:0px;word-spacing:0px;writing-mode:lr-tb;direction:ltr;white-space:pre;shape-inside:url(#rect5-5);display:inline;fill:#ccffff;fill-opacity:1;stroke:none;stroke-width:5.00032;stroke-miterlimit:10;stroke-opacity:1;paint-order:stroke fill markers"><tspan
         x="398.13477"
         y="356.46633"
         id="tspan34">Lorem ipsum dolor sit amet, consectetur adipiscing elit. Nunc et gravida enim. Curabitur </tspan><tspan
         x="398.13477"
         y="376.46633"
         id="tspan35">luctus ligula quis mi tempor, quis iaculis mauris finibus. Curabitur vestibulum </tspan><tspan
         x="398.13477"
         y="396.46633"
         id="tspan36">ullamcorper scelerisque. Cras faucibus sapien vel aliquet ultrices. Interdum et </tspan><tspan
         x="398.13477"
         y="416.46633"
         id="tspan37">malesuada fames ac ante ipsum primis in faucibus. Curabitur pharetra nulla nec urna </tspan><tspan
         x="398.13477"
         y="436.46633"
         id="tspan38">mollis, at ornare mauris sollicitudin. Aliquam massa tellus, rutrum eu lorem vitae, </tspan><tspan
         x="398.13477"
         y="456.46633"
         id="tspan39">sollicitudin feugiat erat. In tristique ex nunc. Quisque eget tortor eget neque consectetur </tspan><tspan
         x="398.13477"
         y="476.46633"
         id="tspan40">tristique non ut metus. Suspendisse eu convallis dui, ut lacinia urna. </tspan></text><path
       id="path1-9-54-8-7-6"
       style="font-variation-settings:'wght' 500;fill:#ccffff;fill-opacity:1;stroke:#ccffff;stroke-width:0.307843;stroke-miterlimit:10;stroke-opacity:1"
       d="m 110.22147,230.41405 a 1.3484877,1.3484877 0 0 1 -1.34849,1.34849 1.3484877,1.3484877 0 0 1 -1.34849,-1.34849 1.3484877,1.3484877 0 0 1 1.34849,-1.34849 1.3484877,1.3484877 0 0 1 1.34849,1.34849 z" /><path
       id="path4-3-1-8-1-8"
       style="font-variation-settings:'wght' 500;fill:#ccffff;fill-opacity:1;stroke:#ccffff;stroke-width:0.307843;stroke-miterlimit:10;stroke-dasharray:none;stroke-dashoffset:0;stroke-opacity:1"
       d="m 108.87297,232.59726 a 2.7932954,2.7932954 0 0 0 -2.74232,2.29225 5.3231247,5.2334164 0 0 0 2.74232,0.75803 5.3231247,5.2334164 0 0 0 2.74682,-0.76042 2.7932954,2.7932954 0 0 0 -2.74682,-2.28986 z" /><text
       xml:space="preserve"
       style="font-style:normal;font-variant:normal;font-weight:normal;font-stretch:normal;font-size:4.23333px;font-family:'IBM Plex Sans';-inkscape-font-specification:'IBM Plex Sans, Normal';font-variant-ligatures:normal;font-variant-caps:normal;font-variant-numeric:normal;font-variant-east-asian:normal;text-align:start;letter-spacing:0px;word-spacing:0px;writing-mode:lr-tb;direction:ltr;text-anchor:start;fill:#ccffff;stroke-width:1.323;stroke-miterlimit:10;paint-order:stroke fill markers"
       x="116.91512"
       y="233.54672"
       id="text2-1-5"><tspan
         sodipodi:role="line"
         id="tspan1-5-7"
         style="font-style:normal;font-variant:normal;font-weight:normal;font-stretch:normal;font-size:4.23333px;font-family:'IBM Plex Sans';-inkscape-font-specification:'IBM Plex Sans, Normal';font-variant-ligatures:normal;font-variant-caps:normal;font-variant-numeric:normal;font-variant-east-asian:normal;stroke-width:1.323"
         x="116.91512"
         y="233.54672">User42</tspan></text><text
       xml:space="preserve"
       style="font-style:normal;font-variant:normal;font-weight:normal;font-stretch:normal;font-size:4.23333px;font-family:'IBM Plex Sans';-inkscape-font-specification:'IBM Plex Sans, Normal';font-variant-ligatures:normal;font-variant-caps:normal;font-variant-numeric:normal;font-variant-east-asian:normal;text-align:start;letter-spacing:0px;word-spacing:0px;writing-mode:lr-tb;direction:ltr;text-anchor:start;fill:#ccffff;fill-opacity:0.4625;stroke-width:1.323;stroke-miterlimit:10;paint-order:stroke fill markers"
       x="135.09625"
       y="233.54243"
       id="text3-2-6"><tspan
         sodipodi:role="line"
         id="tspan2-7-1"
         style="fill:#ccffff;fill-opacity:0.4625;stroke-width:1.323"
         x="135.09625"
         y="233.54243">(3 dni temu)</tspan></text><rect
       style="display:inline;fill:url(#linearGradient17);fill-opacity:1;stroke:none;stroke-width:0.661458;stroke-miterlimit:10;stroke-dasharray:none;stroke-opacity:1;paint-order:stroke fill markers"
       id="rect16"
       width="381"
       height="18.834679"
       x="0"
       y="219.29033" /></g></svg>
