<?xml version="1.0" encoding="UTF-8" standalone="no"?>
<!-- Created with Inkscape (http://www.inkscape.org/) -->

<svg
   width="50.856445"
   height="50.856308"
   viewBox="0 0 13.455767 13.455731"
   version="1.1"
   id="svg1"
   xml:space="preserve"
   sodipodi:docname="profile2.svg"
   inkscape:version="1.4 (86a8ad7, 2024-10-11)"
   xmlns:inkscape="http://www.inkscape.org/namespaces/inkscape"
   xmlns:sodipodi="http://sodipodi.sourceforge.net/DTD/sodipodi-0.dtd"
   xmlns="http://www.w3.org/2000/svg"
   xmlns:svg="http://www.w3.org/2000/svg"><sodipodi:namedview
     id="namedview1"
     pagecolor="#ffffff"
     bordercolor="#000000"
     borderopacity="0.25"
     inkscape:showpageshadow="2"
     inkscape:pageopacity="0.0"
     inkscape:pagecheckerboard="0"
     inkscape:deskcolor="#d1d1d1"
     inkscape:zoom="11.637659"
     inkscape:cx="33.425966"
     inkscape:cy="29.258461"
     inkscape:window-width="1920"
     inkscape:window-height="1017"
     inkscape:window-x="-8"
     inkscape:window-y="-8"
     inkscape:window-maximized="1"
     inkscape:current-layer="svg1" /><defs
     id="defs1" /><g
     id="layer1"
     transform="matrix(1.2903835,0,0,1.2903835,-469.53852,-4.8036571)"><path
       id="path1-9-54"
       style="font-variation-settings:'wght' 500;fill:#ccffff;fill-opacity:1;stroke:#ccffff;stroke-width:0.307843;stroke-miterlimit:10;stroke-opacity:1"
       d="m 368.14709,6.9940104 a 1.3484877,1.3484877 0 0 1 -1.34849,1.34849 1.3484877,1.3484877 0 0 1 -1.34849,-1.34849 1.3484877,1.3484877 0 0 1 1.34849,-1.3484881 1.3484877,1.3484877 0 0 1 1.34849,1.3484881 z" /><path
       id="path4-3-1"
       style="font-variation-settings:'wght' 500;fill:#ccffff;fill-opacity:1;stroke:#ccffff;stroke-width:0.307843;stroke-miterlimit:10;stroke-dasharray:none;stroke-dashoffset:0;stroke-opacity:1"
       d="m 366.79859,9.177217 a 2.7932954,2.7932954 0 0 0 -2.74232,2.29225 5.3231247,5.2334164 0 0 0 2.74232,0.758026 5.3231247,5.2334164 0 0 0 2.74682,-0.760418 2.7932954,2.7932954 0 0 0 -2.74682,-2.289858 z" /></g></svg>
