<?xml version="1.0" encoding="UTF-8" standalone="no"?>
<!-- Created with Inkscape (http://www.inkscape.org/) -->

<svg
   width="3200"
   height="1200"
   viewBox="0 0 846.66663 317.5"
   version="1.1"
   id="svg1"
   inkscape:version="1.4 (86a8ad7, 2024-10-11)"
   sodipodi:docname="logo.svg"
   xml:space="preserve"
   xmlns:inkscape="http://www.inkscape.org/namespaces/inkscape"
   xmlns:sodipodi="http://sodipodi.sourceforge.net/DTD/sodipodi-0.dtd"
   xmlns="http://www.w3.org/2000/svg"
   xmlns:svg="http://www.w3.org/2000/svg"><sodipodi:namedview
     id="namedview1"
     pagecolor="#0d1117"
     bordercolor="#000000"
     borderopacity="0.25"
     inkscape:showpageshadow="2"
     inkscape:pageopacity="0.0"
     inkscape:pagecheckerboard="0"
     inkscape:deskcolor="#d1d1d1"
     inkscape:document-units="mm"
     inkscape:zoom="0.26362494"
     inkscape:cx="1426.2687"
     inkscape:cy="821.24249"
     inkscape:window-width="1920"
     inkscape:window-height="1017"
     inkscape:window-x="-8"
     inkscape:window-y="-8"
     inkscape:window-maximized="1"
     inkscape:current-layer="layer1" /><defs
     id="defs1" /><g
     inkscape:label="Layer 1"
     inkscape:groupmode="layer"
     id="layer1"><rect
       style="font-variation-settings:'wdth' 99.7, 'wght' 469;fill:#0d1117;stroke-width:1.5;stroke-miterlimit:10;paint-order:stroke fill markers;fill-opacity:1"
       id="rect1"
       width="846.66663"
       height="317.5"
       x="0"
       y="0" /><g
       inkscape:label="Layer 1"
       id="layer1-8"
       transform="matrix(7.2511261,0,0,7.2511261,-74.473956,1.0718846)"><path
         d="m 50.645259,26.93116 v -6.894683 h 4.573407 v 1.333499 H 52.14668 v 1.412521 h 2.617609 v 1.323621 H 52.14668 v 2.825042 z m 7.487344,0.118534 q -0.57291,0 -1.027288,-0.187678 -0.444499,-0.187678 -0.760588,-0.543277 -0.306211,-0.3556 -0.474133,-0.859366 -0.167922,-0.503767 -0.167922,-1.126066 0,-0.6223 0.167922,-1.126066 0.167922,-0.503766 0.474133,-0.849488 0.316089,-0.3556 0.760588,-0.543278 0.454378,-0.187677 1.027288,-0.187677 0.572911,0 1.017411,0.187677 0.454377,0.187678 0.760588,0.543278 0.316089,0.345722 0.484011,0.849488 0.167922,0.503766 0.167922,1.126066 0,0.622299 -0.167922,1.126066 -0.167922,0.503766 -0.484011,0.859366 -0.306211,0.355599 -0.760588,0.543277 -0.4445,0.187678 -1.017411,0.187678 z m 0,-1.155699 q 0.434622,0 0.671689,-0.2667 0.237066,-0.2667 0.237066,-0.760589 v -1.056921 q 0,-0.493889 -0.237066,-0.760588 -0.237067,-0.2667 -0.671689,-0.2667 -0.434621,0 -0.671688,0.2667 -0.237066,0.266699 -0.237066,0.760588 v 1.056921 q 0,0.493889 0.237066,0.760589 0.237067,0.2667 0.671688,0.2667 z m 3.46709,1.037165 v -5.185829 h 1.46191 v 1.126066 h 0.04939 q 0.03951,-0.217311 0.138289,-0.414867 0.09878,-0.207433 0.256822,-0.365477 0.167922,-0.158044 0.395111,-0.246944 0.227189,-0.09878 0.533399,-0.09878 h 0.256822 v 1.363132 h -0.365477 q -0.642055,0 -0.958144,0.167922 -0.306211,0.167922 -0.306211,0.6223 v 3.032475 z m 7.052721,-0.869243 h -0.04939 q -0.06914,0.197555 -0.187677,0.375355 -0.108656,0.1778 -0.286456,0.316089 -0.1778,0.138288 -0.424744,0.217311 -0.237066,0.07902 -0.553155,0.07902 -0.800099,0 -1.214966,-0.523522 -0.404988,-0.5334 -0.404988,-1.521177 v -3.259664 h 1.46191 v 3.131253 q 0,0.474133 0.167922,0.730955 0.167922,0.256822 0.572911,0.256822 0.167922,0 0.335844,-0.04939 0.167922,-0.04939 0.296333,-0.138288 0.128411,-0.09878 0.207433,-0.237067 0.07902,-0.138289 0.07902,-0.325966 v -3.36832 h 1.46191 v 5.185829 h -1.46191 z m 2.825049,0.869243 v -5.185829 h 1.46191 v 0.879122 h 0.05927 q 0.138289,-0.414867 0.474133,-0.701322 0.335845,-0.296333 0.918633,-0.296333 0.5334,0 0.908755,0.2667 0.375355,0.266699 0.543277,0.780343 h 0.02963 q 0.06914,-0.217311 0.207433,-0.404988 0.148166,-0.197556 0.3556,-0.335844 0.207433,-0.138289 0.464255,-0.217311 0.256822,-0.0889 0.553155,-0.0889 0.75071,0 1.145821,0.533399 0.404989,0.5334 0.404989,1.521177 v 3.249786 h -1.46191 v -3.131253 q 0,-0.987777 -0.7112,-0.987777 -0.325966,0 -0.592666,0.187678 -0.2667,0.187677 -0.2667,0.57291 v 3.358442 h -1.46191 v -3.131253 q 0,-0.987777 -0.711199,-0.987777 -0.158044,0 -0.316089,0.04939 -0.148166,0.03951 -0.276577,0.138289 -0.118534,0.09878 -0.197556,0.246944 -0.06914,0.138289 -0.06914,0.325966 v 3.358442 z m 9.680207,0.108656 q -0.4445,0 -0.661811,-0.217311 -0.207433,-0.227189 -0.207433,-0.572911 v -0.197555 q 0,-0.345722 0.207433,-0.563033 0.217311,-0.227189 0.661811,-0.227189 0.4445,0 0.651933,0.227189 0.217311,0.217311 0.217311,0.563033 v 0.197555 q 0,0.345722 -0.217311,0.572911 -0.207433,0.217311 -0.651933,0.217311 z m 2.212613,-0.108656 v -5.185829 h 1.46191 v 0.879122 h 0.05927 q 0.138289,-0.404989 0.484011,-0.701322 0.345722,-0.296333 0.958143,-0.296333 0.8001,0 1.205088,0.533399 0.414867,0.5334 0.414867,1.521177 v 3.249786 h -1.46191 v -3.131253 q 0,-0.503766 -0.158045,-0.740833 -0.158044,-0.246944 -0.563033,-0.246944 -0.1778,0 -0.345722,0.04939 -0.167922,0.03951 -0.30621,0.138289 -0.128412,0.09878 -0.207434,0.246944 -0.07902,0.138289 -0.07902,0.325966 v 3.358442 z m 8.050393,0.118534 q -0.59267,0 -1.05692,-0.187678 -0.464257,-0.197555 -0.790223,-0.543277 -0.316089,-0.3556 -0.484011,-0.859366 -0.158044,-0.503767 -0.158044,-1.126066 0,-0.612422 0.158044,-1.10631 0.158045,-0.503767 0.464256,-0.859366 0.316088,-0.3556 0.770468,-0.543278 0.45438,-0.197555 1.03716,-0.197555 0.64206,0 1.09644,0.217311 0.46425,0.217311 0.75071,0.582788 0.29633,0.365478 0.42474,0.849488 0.13829,0.474133 0.13829,0.997655 v 0.434622 h -3.32881 v 0.07902 q 0,0.513644 0.27658,0.819855 0.27658,0.296333 0.86924,0.296333 0.45438,0 0.74084,-0.1778 0.28645,-0.187677 0.5334,-0.444499 l 0.73095,0.908755 q -0.34572,0.404988 -0.90875,0.632177 -0.55316,0.227189 -1.26436,0.227189 z m -0.0296,-4.346219 q -0.4445,0 -0.70132,0.296333 -0.24695,0.286455 -0.24695,0.770466 v 0.07902 h 1.81751 v -0.0889 q 0,-0.474133 -0.21731,-0.760588 -0.20743,-0.296333 -0.65193,-0.296333 z m 5.23522,4.227685 q -0.76059,0 -1.1557,-0.385233 -0.38523,-0.385233 -0.38523,-1.126065 v -2.538587 h -0.73096 v -1.135944 h 0.36548 q 0.29633,0 0.40499,-0.138289 0.10865,-0.148166 0.10865,-0.414866 v -0.849488 h 1.31375 v 1.402643 h 1.02729 v 1.135944 h -1.02729 v 2.913942 h 0.94826 v 1.135943 z"
         id="text1"
         style="font-weight:bold;font-size:9.87777px;font-family:'IBM Plex Sans';-inkscape-font-specification:'IBM Plex Sans, Bold';text-align:center;letter-spacing:0px;word-spacing:0px;text-anchor:middle;fill:#ccffff;stroke-width:0.15;stroke-miterlimit:10;paint-order:stroke fill markers"
         aria-label="Forum.net" /><path
         id="rect1-82"
         style="fill:#00b3b3;stroke-width:0.15;stroke-miterlimit:10;paint-order:stroke fill markers"
         d="m 37.631817,14.038057 h 3.193549 v 3.193548 h -3.193549 z" /><path
         id="rect1-8"
         style="fill:#00d455;stroke-width:0.15;stroke-miterlimit:10;paint-order:stroke fill markers"
         d="m 37.631817,19.182967 h 3.193548 v 7.866726 h -3.193548 z" /><path
         id="rect1-8-4"
         style="fill:#0066ff;stroke-width:0.15;stroke-miterlimit:10;paint-order:stroke fill markers"
         d="m 42.821081,19.182967 h 3.193549 v 7.866726 h -3.193549 z" /><path
         id="rect1-8-4-6"
         style="fill:#0066ff;stroke-width:0.15;stroke-miterlimit:10;paint-order:stroke fill markers"
         d="m 42.778532,17.231606 v -3.193548 h 7.866726 v 3.193548 z" /></g></g></svg>
